<svg width="88" height="88" viewBox="0 0 88 88" fill="none" xmlns="http://www.w3.org/2000/svg">
<g filter="url(#filter0_dd_828_248)">
<circle cx="54" cy="44" r="24" fill="url(#paint0_linear_828_248)"/>
</g>
<path d="M50.6554 44.4363C50.6554 42.3477 52.3481 40.6542 54.4367 40.6542C56.5254 40.6542 58.219 42.3477 58.219 44.4363C58.219 46.5248 56.5254 48.2184 54.4367 48.2184C52.3481 48.2184 50.6554 46.5248 50.6554 44.4363ZM48.6107 44.4363C48.6107 47.6538 51.219 50.262 54.4367 50.262C57.6544 50.262 60.2627 47.6538 60.2627 44.4363C60.2627 41.2187 57.6544 38.6105 54.4367 38.6105C51.219 38.6105 48.6107 41.2187 48.6107 44.4363ZM59.1318 38.3795C59.1315 39.1314 59.7409 39.7412 60.4928 39.7415C61.2448 39.7418 61.8546 39.1325 61.8549 38.3806C61.8552 37.6287 61.2458 37.0189 60.4939 37.0186H60.4934C59.7418 37.019 59.1325 37.628 59.1318 38.3795ZM49.853 53.6712C48.7468 53.6208 48.1456 53.4366 47.746 53.2809C47.2163 53.0747 46.8383 52.8291 46.4409 52.4323C46.0436 52.0355 45.7976 51.6579 45.5923 51.1282C45.4365 50.7288 45.2523 50.1274 45.202 49.0213C45.147 47.8254 45.136 47.4661 45.136 44.4364C45.136 41.4066 45.1479 41.0483 45.202 39.8514C45.2524 38.7453 45.438 38.1451 45.5923 37.7445C45.7985 37.2148 46.0441 36.8369 46.4409 36.4395C46.8378 36.0422 47.2154 35.7962 47.746 35.5909C48.1454 35.4352 48.7468 35.2509 49.853 35.2006C51.0489 35.1456 51.4082 35.1346 54.4367 35.1346C57.4653 35.1346 57.8249 35.1465 59.0218 35.2006C60.128 35.251 60.7283 35.4366 61.1288 35.5909C61.6585 35.7962 62.0365 36.0427 62.4339 36.4395C62.8312 36.8364 63.0763 37.2148 63.2825 37.7445C63.4383 38.1439 63.6226 38.7453 63.6728 39.8514C63.7278 41.0483 63.7388 41.4066 63.7388 44.4364C63.7388 47.4661 63.7278 47.8244 63.6728 49.0213C63.6225 50.1274 63.4373 50.7286 63.2825 51.1282C63.0763 51.6579 62.8307 52.0358 62.4339 52.4323C62.037 52.8287 61.6585 53.0747 61.1288 53.2809C60.7294 53.4367 60.128 53.6209 59.0218 53.6712C57.8259 53.7262 57.4666 53.7372 54.4367 53.7372C51.4068 53.7372 51.0486 53.7262 49.853 53.6712ZM49.759 33.1595C48.5512 33.2145 47.7259 33.406 47.0051 33.6865C46.2586 33.9761 45.6267 34.3647 44.9952 34.9951C44.3637 35.6256 43.9762 36.2585 43.6865 37.0049C43.4061 37.7261 43.2145 38.551 43.1595 39.7588C43.1036 40.9685 43.0908 41.3552 43.0908 44.4363C43.0908 47.5173 43.1036 47.9041 43.1595 49.1138C43.2145 50.3217 43.4061 51.1464 43.6865 51.8676C43.9762 52.6136 44.3638 53.2472 44.9952 53.8774C45.6266 54.5076 46.2586 54.8956 47.0051 55.186C47.7272 55.4665 48.5512 55.658 49.759 55.713C50.9694 55.768 51.3555 55.7817 54.4367 55.7817C57.5179 55.7817 57.9047 55.7689 59.1144 55.713C60.3223 55.658 61.1472 55.4665 61.8684 55.186C62.6144 54.8956 63.2468 54.5079 63.8782 53.8774C64.5097 53.247 64.8965 52.6136 65.1869 51.8676C65.4674 51.1464 65.6598 50.3216 65.7139 49.1138C65.7689 47.9032 65.7817 47.5173 65.7817 44.4363C65.7817 41.3552 65.7689 40.9685 65.7139 39.7588C65.6589 38.5509 65.4674 37.7257 65.1869 37.0049C64.8965 36.2589 64.5087 35.6266 63.8782 34.9951C63.2478 34.3637 62.6144 33.9761 61.8693 33.6865C61.1472 33.406 60.3223 33.2136 59.1153 33.1595C57.9056 33.1045 57.5188 33.0908 54.4376 33.0908C51.3565 33.0908 50.9694 33.1036 49.759 33.1595Z" fill="white"/>
<defs>
<filter id="filter0_dd_828_248" x="0" y="0" width="88" height="88" filterUnits="userSpaceOnUse" color-interpolation-filters="sRGB">
<feFlood flood-opacity="0" result="BackgroundImageFix"/>
<feColorMatrix in="SourceAlpha" type="matrix" values="0 0 0 0 0 0 0 0 0 0 0 0 0 0 0 0 0 0 127 0" result="hardAlpha"/>
<feOffset dy="4"/>
<feGaussianBlur stdDeviation="2.5"/>
<feComposite in2="hardAlpha" operator="out"/>
<feColorMatrix type="matrix" values="0 0 0 0 0 0 0 0 0 0.0458334 0 0 0 0 0.1375 0 0 0 0.5 0"/>
<feBlend mode="normal" in2="BackgroundImageFix" result="effect1_dropShadow_828_248"/>
<feColorMatrix in="SourceAlpha" type="matrix" values="0 0 0 0 0 0 0 0 0 0 0 0 0 0 0 0 0 0 127 0" result="hardAlpha"/>
<feOffset dx="-10"/>
<feGaussianBlur stdDeviation="10"/>
<feComposite in2="hardAlpha" operator="out"/>
<feColorMatrix type="matrix" values="0 0 0 0 1 0 0 0 0 0 0 0 0 0 0.422619 0 0 0 0.33 0"/>
<feBlend mode="normal" in2="effect1_dropShadow_828_248" result="effect2_dropShadow_828_248"/>
<feBlend mode="normal" in="SourceGraphic" in2="effect2_dropShadow_828_248" result="shape"/>
</filter>
<linearGradient id="paint0_linear_828_248" x1="41" y1="29" x2="65" y2="60" gradientUnits="userSpaceOnUse">
<stop stop-color="#D82D7E"/>
<stop offset="0.479167" stop-color="#DF406C"/>
<stop offset="1" stop-color="#FA8F21"/>
</linearGradient>
</defs>
</svg>
